<?xml version="1.0" standalone="no"?>
<!DOCTYPE svg PUBLIC "-//W3C//DTD SVG 20010904//EN"
 "http://www.w3.org/TR/2001/REC-SVG-20010904/DTD/svg10.dtd">
<svg version="1.0" xmlns="http://www.w3.org/2000/svg"
 width="512.000000pt" height="512.000000pt" viewBox="0 0 512.000000 512.000000"
 preserveAspectRatio="xMidYMid meet">
<metadata>
Created by potrace 1.14, written by Peter Selinger 2001-2017
</metadata>
<g transform="translate(0.000000,512.000000) scale(0.100000,-0.100000)"
fill="#000000" stroke="none">
<path d="M1804 5055 c-61 -48 -84 -170 -50 -262 l15 -43 -39 0 c-64 0 -196 46
-218 77 -13 18 -25 24 -36 20 -20 -8 -15 -51 15 -108 l19 -39 -27 -1 c-16 -1
-41 -3 -58 -4 -73 -8 -132 -6 -158 4 -16 6 -33 11 -38 11 -16 0 17 -53 60 -95
23 -21 41 -43 41 -47 0 -20 -69 -42 -140 -43 -108 -3 -270 48 -382 122 -36 23
-52 8 -50 -48 3 -57 70 -255 99 -290 l25 -29 -27 -10 c-66 -25 -129 -4 -195
66 -22 24 -45 44 -49 44 -49 0 -41 -197 10 -273 36 -52 36 -57 2 -51 -46 8
-126 49 -160 82 -34 33 -58 100 -48 132 17 54 -47 40 -100 -22 -51 -60 -74
-118 -80 -198 -10 -158 78 -284 228 -328 l58 -17 -5 -66 c-12 -157 -109 -336
-203 -375 -39 -17 -80 -13 -121 11 -49 30 -61 74 -36 139 11 30 -49 19 -83
-14 -92 -90 -89 -238 5 -341 42 -46 114 -85 174 -94 80 -12 44 -28 -86 -40
-55 -5 -63 -3 -104 26 -58 42 -70 30 -47 -46 21 -73 90 -145 178 -185 50 -23
75 -28 130 -27 37 0 71 -3 76 -9 4 -5 14 -36 20 -68 27 -122 100 -269 203
-409 78 -104 622 -649 708 -709 36 -25 97 -58 135 -74 118 -48 277 -37 321 24
13 18 7 58 -14 90 -40 62 -298 216 -351 210 -78 -9 -43 -130 58 -199 37 -24
132 -41 131 -22 -1 4 -27 25 -59 46 -62 40 -108 83 -99 93 13 12 204 -103 246
-149 l24 -25 -24 -15 c-79 -51 -219 -8 -378 117 -64 51 -294 293 -368 388
-102 131 -145 202 -172 283 -18 55 -20 78 -15 212 4 120 2 158 -10 187 -8 19
-15 38 -15 40 0 3 19 3 43 2 44 -4 97 16 97 37 0 6 -34 44 -75 82 -44 41 -77
80 -79 95 -3 14 -9 45 -13 70 -5 25 -9 58 -9 74 1 27 4 30 41 33 47 5 135 31
135 42 0 9 -26 45 -77 109 -65 80 -57 89 37 41 122 -63 143 -46 88 68 l-33 68
-1 168 c-1 108 -5 172 -13 180 -15 15 -16 13 -34 -78 -16 -81 -17 -275 -2
-322 12 -37 -9 -27 -65 30 -74 74 -82 94 -78 188 3 86 -5 97 -41 58 -42 -46
-39 -120 10 -214 17 -33 33 -78 36 -100 3 -22 19 -69 36 -105 18 -36 33 -68
35 -72 8 -17 -77 17 -111 44 -21 16 -45 27 -53 24 -15 -6 -17 1 31 -110 8 -19
16 -76 19 -128 4 -103 18 -145 62 -198 l29 -34 -35 21 c-19 11 -50 30 -69 41
-72 43 -72 -4 -1 -85 48 -54 61 -96 52 -166 -14 -121 -6 -272 19 -334 13 -33
31 -74 38 -88 13 -27 -36 26 -88 95 -86 114 -188 326 -208 429 -2 14 -6 28 -8
32 -3 4 2 12 11 20 8 7 20 21 26 32 15 28 -5 37 -56 25 -108 -26 -174 -25
-228 3 -32 17 -98 69 -98 78 0 4 31 7 68 8 50 0 80 6 112 23 62 31 127 77 161
112 47 50 52 97 6 68 -58 -36 -85 -44 -152 -44 -105 0 -183 49 -219 136 -17
40 -22 123 -7 132 4 3 19 -10 32 -29 56 -78 126 -104 197 -74 122 52 259 297
250 447 -3 53 -1 58 21 67 70 29 127 63 145 87 11 15 18 30 15 32 -3 3 -41 -6
-84 -20 -111 -36 -176 -36 -243 1 -30 16 -62 40 -73 53 -50 64 -57 248 -14
333 18 34 30 31 38 -9 16 -81 126 -163 238 -179 78 -11 290 -6 303 7 16 17
-16 37 -72 45 -103 15 -151 50 -182 132 -28 76 -27 90 8 63 69 -55 150 -64
225 -27 40 21 50 22 75 12 16 -7 61 -11 104 -10 64 2 88 9 150 38 80 39 168
109 151 120 -6 4 -37 -7 -69 -24 -184 -99 -317 -93 -398 18 -28 38 -86 166
-86 189 0 3 17 -4 38 -15 125 -68 278 -97 397 -77 79 14 200 54 203 68 1 7
-23 30 -54 50 l-57 36 43 12 c36 10 170 6 190 -5 3 -1 16 1 29 6 l24 10 -39
41 c-23 24 -32 38 -21 34 34 -12 61 -15 154 -20 52 -3 107 -12 125 -20 52 -25
168 -21 168 5 0 12 -15 17 -68 23 -60 7 -100 34 -131 89 -26 44 -27 51 -19
110 6 34 15 68 23 75 10 11 14 7 20 -24 3 -21 15 -54 25 -74 56 -108 151 -140
360 -118 147 15 201 15 272 3 41 -7 71 -8 75 -2 3 5 -9 23 -26 41 -26 27 -31
41 -37 102 -7 75 8 113 20 51 9 -48 59 -122 106 -156 37 -27 46 -29 125 -27
47 0 86 5 87 10 2 6 -27 15 -64 22 -89 17 -135 40 -164 83 -26 40 -55 116 -47
124 13 13 -10 47 -32 47 -57 0 -83 -55 -80 -168 l2 -62 -98 4 c-54 3 -112 1
-129 -4 -102 -29 -200 -28 -255 4 -58 34 -92 94 -111 195 -1 8 -9 20 -16 27
-11 11 -18 9 -44 -11z"/>
<path d="M3510 4808 c-11 -12 -20 -35 -20 -51 0 -24 32 -125 66 -211 6 -16 4
-18 -9 -13 -25 9 -21 -7 10 -45 45 -54 64 -70 171 -138 56 -36 102 -69 102
-75 0 -5 -17 -19 -38 -30 -33 -18 -37 -24 -37 -59 0 -32 6 -44 36 -68 30 -24
45 -29 92 -29 36 -1 66 5 81 14 32 21 62 5 104 -58 31 -45 32 -50 15 -56 -83
-31 -18 -151 75 -137 35 5 47 -11 106 -149 l34 -81 -29 8 c-24 7 -34 4 -57
-15 -25 -22 -27 -28 -26 -97 2 -136 69 -217 171 -208 16 1 26 -6 33 -24 11
-29 26 -151 35 -276 l6 -85 -21 33 c-11 18 -20 36 -20 41 0 19 -51 61 -74 61
-69 0 -84 -200 -23 -316 21 -40 73 -84 99 -84 19 0 20 -4 15 -72 -3 -40 -11
-100 -17 -133 -6 -33 -13 -76 -16 -95 -3 -19 -7 -37 -9 -38 -2 -2 -13 17 -25
43 -23 50 -37 60 -73 51 -32 -8 -48 -48 -48 -120 1 -79 6 -103 43 -200 30 -76
31 -83 19 -138 -24 -116 -198 -487 -229 -489 -64 -3 -169 -28 -214 -50 -123
-62 -93 -174 42 -156 36 5 39 3 30 -13 -14 -27 -80 -81 -91 -75 -28 18 -204
27 -257 14 -162 -41 -191 -67 -162 -143 8 -21 6 -26 -12 -32 -12 -3 -43 -27
-69 -51 l-48 -45 -88 -3 c-75 -2 -140 -11 -228 -29 -104 -22 -257 -110 -347
-200 l-37 -37 -56 71 c-111 136 -296 246 -350 206 -9 -6 -17 -26 -17 -44 -1
-18 -2 -32 -4 -32 -2 0 -30 13 -62 30 -91 46 -121 40 -139 -28 l-8 -34 -51 41
c-70 55 -101 67 -125 45 -11 -10 -19 -23 -19 -31 0 -19 -10 -16 -60 18 -64 43
-87 51 -112 38 -15 -8 -32 -8 -62 0 -22 7 -50 13 -61 15 -11 2 -40 16 -65 30
-55 32 -64 32 -90 4 -11 -12 -32 -23 -46 -24 -32 -1 -45 -20 -38 -57 8 -47 -5
-50 -58 -12 -144 104 -234 228 -223 310 15 123 119 164 159 64 17 -42 13 -65
-13 -78 -26 -14 -43 -3 -30 20 20 39 -28 58 -67 27 -58 -45 51 -147 123 -115
47 21 67 114 39 182 -38 90 -127 114 -199 54 -94 -77 -98 -198 -11 -325 l44
-64 -28 -6 c-41 -10 -61 -32 -56 -62 10 -62 74 -83 272 -91 33 -1 27 -18 -18
-46 -57 -36 -66 -57 -36 -91 33 -39 103 -39 216 0 61 21 130 31 130 19 0 -5
-33 -39 -73 -76 -41 -36 -74 -74 -75 -84 -5 -44 -2 -58 15 -71 43 -31 203 25
373 133 78 49 78 25 2 -54 -68 -70 -77 -85 -72 -121 5 -42 76 -52 171 -24 73
21 268 117 302 149 18 18 32 23 42 18 12 -7 6 -20 -33 -66 -70 -82 -93 -175
-53 -211 39 -36 152 -12 285 58 71 38 71 38 46 -40 -38 -113 85 -199 340 -240
172 -28 413 17 559 103 143 85 260 248 289 404 6 33 25 49 193 177 103 77 197
149 210 160 13 11 175 145 359 298 184 152 342 284 352 291 9 8 40 16 70 17
29 2 71 11 93 20 38 16 62 16 142 0 24 -4 78 42 89 76 13 40 3 86 -23 105 -14
11 -15 15 -4 28 16 21 24 72 17 112 -6 31 -32 66 -67 93 -27 20 -91 24 -134 9
-39 -14 -41 -14 -59 10 -16 22 -24 25 -58 20 -50 -7 -86 -39 -94 -86 -5 -24
-20 -48 -46 -73 -39 -36 -40 -37 -35 -98 l4 -61 -146 -121 c-80 -66 -155 -128
-166 -137 -32 -26 -194 -144 -267 -194 l-66 -46 84 125 c46 69 96 148 110 175
l27 49 23 -25 c25 -27 63 -40 97 -31 60 15 72 146 22 227 -27 42 -28 46 -17
98 16 77 53 142 93 165 85 47 216 175 284 277 77 114 88 223 26 253 -46 22
-72 8 -159 -82 l-84 -87 7 68 c3 37 8 78 11 90 2 12 7 38 10 57 5 26 22 49 66
89 152 138 307 486 283 636 -23 151 -158 83 -261 -133 -27 -56 -52 -101 -56
-102 -5 0 -9 28 -9 63 -2 60 -3 74 -10 128 -2 17 5 36 24 59 104 123 181 474
142 645 -17 73 -43 112 -88 130 -36 15 -41 14 -70 -3 -72 -41 -107 -137 -110
-297 -1 -58 -5 -105 -8 -105 -3 0 -6 6 -6 13 0 6 -19 56 -41 110 l-42 97 19
38 c61 120 55 273 -13 317 -16 11 -35 15 -51 11 -40 -10 -57 -56 -64 -180 -1
-11 -51 45 -88 97 -25 36 -26 41 -15 85 23 94 30 257 16 362 -15 111 -69 195
-119 186 -73 -13 -99 -73 -92 -208 3 -51 8 -104 11 -118 3 -14 9 -41 12 -60 4
-19 11 -43 16 -52 15 -30 -6 -21 -86 38 -77 56 -80 61 -67 119 10 42 -13 154
-43 213 -57 113 -154 165 -206 110z m82 -40 c32 -27 67 -86 92 -156 26 -72 34
-146 17 -156 -7 -5 -71 65 -71 79 0 3 -10 22 -23 43 -13 20 -32 60 -43 87 -17
44 -20 64 -15 105 1 14 24 13 43 -2z m402 -85 c7 -16 18 -56 23 -91 12 -79 9
-350 -4 -363 -11 -11 -46 60 -59 117 -36 160 -40 275 -10 332 20 39 31 40 50
5z m-57 -499 c12 -15 20 -31 17 -35 -8 -13 -95 -11 -123 4 -35 17 -36 33 -4
45 51 19 86 14 110 -14z m334 -55 c13 -44 9 -193 -5 -218 l-13 -23 -8 33 c-10
43 -15 191 -8 219 7 27 25 21 34 -11z m298 -184 c22 -42 23 -51 23 -125 0 -97
-16 -199 -57 -350 -17 -66 -63 -176 -70 -169 -5 5 -25 154 -31 227 -6 76 -6
252 0 278 2 12 7 38 10 59 17 104 88 150 125 80z m-424 -25 c17 -19 17 -20 1
-20 -25 0 -58 19 -51 31 10 15 31 10 50 -11z m141 -362 c32 -38 70 -120 79
-172 6 -32 5 -36 -14 -36 -26 0 -90 55 -103 89 -22 56 -21 151 1 151 5 0 22
-15 37 -32z m469 -368 c-6 -68 -8 -79 -35 -160 -39 -121 -117 -264 -180 -332
l-59 -63 5 65 c16 213 103 431 210 530 55 51 66 43 59 -40z m-410 -203 c47
-72 92 -257 68 -281 -9 -9 -59 47 -82 93 -53 103 -40 271 14 188z m312 -602
c-10 -77 -79 -195 -165 -284 -56 -56 -120 -106 -128 -98 -10 9 35 137 73 210
41 78 121 165 180 196 21 11 40 20 42 21 1 0 1 -20 -2 -45z m-353 -67 c11 -52
19 -224 10 -215 -4 4 -9 13 -10 20 -1 7 -9 35 -18 62 -16 52 -20 113 -10 152
8 30 20 22 28 -19z m472 -427 c3 -14 7 -32 10 -38 4 -14 44 -18 44 -5 0 5 22
21 50 36 l50 27 25 -25 c33 -33 32 -64 -5 -114 -16 -23 -30 -46 -30 -52 0 -5
18 -19 40 -30 70 -36 46 -88 -34 -76 -28 5 -63 2 -93 -7 -52 -14 -53 -14 -100
-3 -28 6 -38 1 -110 -56 -182 -147 -266 -210 -673 -515 -179 -134 -352 -264
-384 -289 -66 -52 -57 -54 -108 19 -9 13 -32 32 -51 41 -38 18 -127 22 -127 6
0 -5 3 -10 8 -11 124 -12 184 -91 153 -201 -27 -97 -160 -237 -276 -292 -225
-106 -558 -131 -656 -49 -34 29 -47 24 -33 -14 10 -30 52 -58 99 -68 32 -6
160 -6 210 0 104 13 226 35 278 51 16 5 15 2 -4 -17 -21 -21 -22 -24 -6 -27
53 -10 -25 -52 -113 -59 -30 -3 -71 -6 -90 -7 -66 -4 -305 39 -316 56 -3 4
-13 8 -23 8 -26 0 -71 45 -71 72 0 29 58 163 102 234 39 65 134 167 202 218
62 47 154 90 253 118 108 31 338 32 435 2 9 -3 22 3 30 14 11 16 43 33 68 37
12 1 122 54 215 101 255 131 554 349 776 566 90 87 99 102 99 162 0 40 4 47
40 76 33 26 40 38 40 68 0 40 33 84 56 75 8 -3 17 -17 20 -32z m-500 -264 c13
-57 11 -87 -8 -107 -15 -16 -22 -18 -43 -8 -39 17 -42 52 -11 115 22 45 29 53
41 43 7 -6 17 -26 21 -43z m330 -135 c-8 -13 -338 -271 -376 -294 l-35 -22 35
38 c32 35 112 97 301 234 72 52 85 59 75 44z m-585 -101 c-12 -16 -36 -39 -55
-50 -39 -25 -116 -37 -141 -24 -16 9 -16 12 5 31 20 19 200 85 208 77 2 -2 -5
-17 -17 -34z m-241 -254 c24 -4 -116 -108 -154 -114 -60 -10 -144 6 -174 33
l-27 24 25 19 c29 23 59 30 155 38 39 3 71 6 72 7 2 2 77 -4 103 -7z m-204
-169 c3 -4 -28 -23 -69 -43 -64 -31 -82 -36 -116 -30 -23 4 -44 11 -47 17 -9
14 33 45 76 56 39 9 146 9 156 0z m-2209 -40 c11 -13 26 -39 33 -58 7 -19 17
-39 21 -45 3 -5 10 -26 14 -45 7 -33 7 -34 -11 -20 -49 38 -86 97 -99 158 -8
39 11 44 42 10z m-331 -37 c59 -27 64 -41 12 -36 -56 6 -98 24 -98 41 0 19 37
17 86 -5z m253 -19 c11 -16 23 -41 27 -56 6 -26 5 -27 -14 -17 -28 15 -52 51
-52 78 0 31 14 29 39 -5z m226 -19 c34 -36 95 -128 95 -146 0 -11 -67 29 -104
62 -29 26 -56 77 -56 106 0 26 26 17 65 -22z m852 -54 c57 -45 128 -121 145
-156 14 -29 4 -53 -22 -53 -65 0 -223 120 -264 199 -24 45 -30 83 -15 92 15 9
86 -29 156 -82z m-711 59 c16 -12 43 -36 59 -53 33 -33 108 -135 103 -140 -8
-8 -122 47 -140 67 -45 51 -66 85 -73 116 -8 39 8 43 51 10z m225 -53 c31 -31
76 -83 99 -116 l43 -61 -34 7 c-80 17 -138 64 -175 141 -47 100 -18 113 67 29z
m208 21 c25 -19 81 -70 124 -114 42 -44 87 -87 100 -96 21 -15 18 -16 -47 -10
-79 6 -150 28 -185 56 -55 43 -96 133 -80 176 12 31 34 28 88 -12z m-792 -82
c24 -9 43 -20 43 -24 0 -4 -15 -11 -32 -15 -18 -4 -39 -9 -45 -10 -80 -19
-119 -12 -108 17 6 16 60 46 85 47 8 1 34 -6 57 -15z m361 -98 c6 -4 12 -11
12 -16 0 -16 -172 -103 -238 -122 -103 -28 -108 -12 -22 72 34 34 73 63 92 68
39 10 138 9 156 -2z m278 -61 c27 -3 58 -8 69 -10 11 -2 27 -4 35 -4 20 -1 5
-14 -70 -54 -96 -51 -290 -106 -290 -81 0 28 107 136 151 152 13 6 31 8 40 7
9 -2 38 -6 65 -10z m497 -47 c61 -2 61 -18 1 -75 -53 -48 -234 -143 -291 -150
-89 -12 -72 77 39 193 l39 41 82 -3 c45 -2 103 -5 130 -6z"/>
<path d="M4723 1854 c-8 -21 13 -42 28 -27 13 13 5 43 -11 43 -6 0 -13 -7 -17
-16z"/>
<path d="M4872 1838 c-27 -27 -2 -61 36 -47 32 12 31 59 -1 59 -13 0 -28 -5
-35 -12z"/>
<path d="M4724 1772 c-63 -50 -49 -122 26 -134 23 -3 63 12 88 35 67 62 -43
157 -114 99z m81 -42 c10 -15 -11 -37 -41 -43 -30 -5 -43 15 -24 38 14 17 56
20 65 5z"/>
<path d="M4904 1665 c-12 -31 23 -48 45 -21 10 12 8 17 -8 25 -26 14 -31 14
-37 -4z"/>
<path d="M3090 808 c-19 -4 -48 -10 -65 -13 -65 -13 -160 -51 -163 -66 -3 -17
5 -17 75 -5 24 4 46 8 50 8 5 0 17 4 28 10 14 7 13 3 -5 -11 -21 -18 -23 -22
-10 -31 8 -5 18 -10 23 -10 4 0 7 -7 7 -16 0 -18 25 -15 87 11 46 19 30 55
-20 46 -5 -1 -6 3 -3 8 4 5 26 13 51 16 53 8 85 29 70 44 -14 14 -81 19 -125
9z"/>
<path d="M2705 647 c-11 -6 -25 -15 -30 -21 -11 -11 -109 -132 -123 -151 -18
-25 -60 -113 -66 -137 -11 -46 12 -41 38 9 13 26 59 93 101 148 73 95 110 153
103 160 -2 2 -12 -1 -23 -8z"/>
<path d="M3046 650 c-31 -5 -49 -30 -21 -30 10 0 13 -5 9 -12 -4 -6 0 -16 8
-22 9 -6 17 -19 19 -29 4 -14 7 -15 29 -4 14 7 25 20 25 29 0 9 9 26 20 38 32
35 -2 46 -89 30z"/>
<path d="M2486 4753 c-1 -1 -24 -4 -51 -7 -158 -16 -218 -38 -269 -98 -19 -21
-39 -60 -46 -86 -25 -95 -21 -88 -32 -67 -15 26 -16 82 -2 143 8 37 8 54 1 59
-6 4 -13 1 -15 -5 -11 -34 -39 -50 -96 -56 -155 -16 -245 -71 -290 -178 l-14
-31 -7 34 c-13 66 -14 68 -43 63 -70 -13 -156 -123 -199 -255 l-27 -86 -28 38
c-29 40 -57 51 -59 24 -1 -8 -3 -24 -4 -35 -1 -11 -3 -26 -4 -34 -1 -14 -44
-58 -104 -108 -29 -24 -30 -51 -1 -62 13 -5 29 9 109 98 l26 30 62 -62 c59
-58 97 -78 97 -49 0 6 -5 32 -11 57 -6 25 -11 72 -11 105 -1 52 5 74 45 155
42 88 91 160 100 150 3 -3 12 -30 21 -61 9 -31 25 -67 35 -80 18 -21 21 -22
35 -9 8 8 18 30 21 49 19 108 131 199 266 216 l39 5 0 -54 c0 -41 6 -62 28
-95 33 -49 70 -77 83 -64 5 5 13 34 18 64 15 88 60 179 89 179 6 0 12 4 12 9
0 15 102 39 190 46 97 7 224 35 213 46 -7 6 -171 18 -177 12z"/>
<path d="M2887 4744 c-1 -1 -18 -5 -37 -8 -19 -3 -48 -8 -65 -11 -100 -18
-231 -123 -256 -203 -32 -108 75 -199 256 -217 28 -3 73 -8 100 -11 194 -22
297 -83 340 -204 19 -55 27 -100 18 -100 -4 0 -32 17 -63 39 -133 93 -237 135
-440 178 -52 11 -256 4 -315 -12 -33 -8 -67 -17 -75 -19 -8 -2 -28 -9 -43 -15
-46 -18 -56 -13 -78 34 -15 33 -29 47 -54 55 -92 30 -210 -48 -406 -269 -41
-47 -63 -64 -85 -66 -67 -6 -165 -28 -247 -56 l-87 -29 -73 63 c-85 74 -143
114 -214 150 -51 26 -51 26 -76 7 -49 -38 -60 -195 -33 -465 7 -74 16 -138 21
-155 2 -8 7 -35 10 -60 3 -25 10 -61 16 -82 21 -82 -13 -203 -81 -283 -19 -22
-40 -47 -47 -56 -11 -13 -10 -20 9 -45 17 -21 23 -42 23 -79 0 -50 0 -50 50
-76 30 -16 49 -32 46 -40 -2 -8 -7 -26 -11 -40 -10 -32 -4 -42 35 -60 28 -13
30 -18 31 -74 0 -48 10 -132 19 -165 1 -3 5 -21 9 -40 34 -144 145 -281 264
-327 29 -11 68 -38 102 -74 30 -30 75 -72 100 -91 53 -42 205 -120 273 -139
26 -7 47 -16 48 -19 9 -61 20 -79 67 -108 161 -98 422 -132 667 -86 17 3 41 7
55 9 14 2 25 4 25 5 0 2 19 6 62 14 54 10 204 66 284 106 188 93 379 252 434
361 24 47 27 59 18 92 -9 34 -9 37 6 31 34 -13 100 -16 134 -4 74 24 111 102
117 245 1 26 11 36 72 75 133 85 279 255 333 388 99 244 92 541 -16 731 -66
114 -211 221 -305 223 -46 1 -189 -11 -221 -19 -28 -6 -28 -10 -3 63 11 32 23
70 26 84 12 46 13 264 3 315 -6 28 -13 63 -16 80 -8 44 -43 136 -68 175 -84
130 -264 241 -440 270 -58 10 -212 19 -218 14z m223 -129 c160 -49 306 -169
374 -305 58 -119 71 -207 52 -365 -12 -95 -63 -235 -86 -235 -5 0 -19 19 -31
42 -12 24 -32 58 -45 78 -15 24 -24 56 -28 100 -8 94 -16 128 -46 195 -71 157
-220 231 -520 260 -89 9 -147 43 -156 91 -13 69 35 109 168 143 89 23 236 21
318 -4z m-957 -507 c29 -77 56 -190 63 -257 11 -115 12 -133 13 -284 1 -124 3
-149 17 -154 21 -8 31 4 55 71 16 46 20 82 20 179 -1 67 -3 141 -6 165 -3 23
-7 61 -10 85 -3 23 -8 60 -11 83 -5 38 -3 43 31 71 87 72 254 89 486 48 44 -8
147 -44 200 -71 188 -94 336 -266 398 -463 17 -53 33 -113 36 -134 l6 -38 50
7 c47 6 49 6 49 -17 0 -31 -11 -47 -30 -44 -9 2 -29 -3 -45 -10 l-30 -12 50
-26 c87 -44 90 -75 17 -160 -38 -44 -40 -48 -30 -82 17 -54 0 -81 -76 -115
-59 -26 -66 -32 -77 -70 -15 -49 -48 -75 -86 -67 -31 6 -77 -9 -69 -22 9 -14
-44 -72 -81 -87 -52 -22 -88 -18 -118 15 -24 25 -31 27 -64 20 -39 -9 -90 -28
-161 -62 -49 -23 -203 -77 -208 -72 -2 1 5 21 14 44 9 22 13 48 10 57 -6 14
-9 13 -28 -7 -82 -93 -134 -338 -99 -467 9 -33 9 -52 1 -78 -13 -40 -21 -37
-56 17 -31 49 -44 43 -32 -13 5 -24 10 -49 11 -57 1 -8 -10 -17 -26 -22 -26
-7 -31 -3 -64 47 -20 30 -39 54 -43 54 -13 0 -19 -43 -9 -62 6 -11 9 -22 6
-24 -10 -10 -108 78 -131 119 -60 101 -71 253 -27 367 24 63 27 90 8 90 -13 0
-77 -91 -77 -109 0 -5 -10 -17 -22 -26 -19 -12 -47 -14 -158 -11 -137 3 -249
22 -351 57 -81 28 -99 30 -106 13 -3 -10 5 -24 22 -37 15 -12 37 -29 48 -38
19 -15 19 -18 6 -60 -15 -45 -17 -103 -4 -174 27 -160 9 -199 -47 -100 -24 42
-43 39 -43 -7 l0 -38 -17 23 c-10 12 -18 28 -18 35 0 6 -2 12 -4 12 -2 0 -11
3 -20 6 -11 4 -16 1 -16 -11 0 -27 -32 -13 -57 24 -43 63 -75 187 -77 288 -1
55 3 96 10 103 7 7 24 8 50 2 49 -11 94 3 94 28 0 22 -51 40 -115 40 -45 0
-74 13 -56 24 6 4 11 20 11 36 0 27 -4 30 -38 36 -20 3 -46 12 -57 20 -18 14
-18 15 8 42 36 37 34 50 -8 68 -19 8 -35 17 -35 19 0 3 14 32 30 65 49 96 55
187 24 349 -8 48 -18 100 -21 116 -6 41 -11 380 -5 433 2 24 9 41 14 40 16 -6
101 -80 147 -130 24 -26 46 -62 50 -80 10 -47 42 -47 153 0 128 54 181 70 266
81 94 12 127 32 259 162 104 101 196 179 212 179 5 0 15 -19 24 -42z m1695
-412 c74 -10 183 -111 237 -218 68 -136 86 -310 51 -495 -9 -47 -56 -193 -62
-193 -3 0 -3 9 1 19 6 21 9 34 30 136 21 105 13 303 -14 380 -26 73 -62 128
-114 177 -58 54 -111 69 -194 56 -27 -5 -111 -58 -137 -87 l-19 -21 -33 21
c-18 11 -43 22 -55 24 -77 15 -34 100 80 157 66 33 159 59 186 52 6 -2 25 -5
43 -8z m34 -195 c66 -25 154 -166 178 -284 48 -239 -71 -572 -256 -715 -35
-28 -221 -112 -246 -112 -13 0 -9 39 8 75 11 23 24 35 46 39 47 9 134 63 185
114 124 126 193 290 198 471 5 151 -45 283 -137 366 -26 24 -48 46 -48 49 0 9
46 7 72 -3z m-78 -107 c116 -116 150 -302 89 -489 -47 -145 -154 -263 -272
-300 -16 -5 -21 -4 -17 4 15 24 23 263 12 354 -16 131 -16 136 -3 144 33 19
49 73 44 149 -4 60 -1 79 15 106 48 80 77 87 132 32z m-269 -626 c-4 -227 -11
-260 -55 -283 -29 -15 -40 -35 -45 -83 -3 -25 -2 -25 26 9 16 18 29 32 29 28
1 -17 -84 -258 -98 -279 -23 -34 -51 -92 -52 -107 0 -21 18 -15 36 12 20 31
34 24 34 -17 0 -19 -13 -47 -37 -79 -21 -26 -40 -48 -44 -49 -3 0 -6 26 -7 58
-2 60 15 142 29 142 5 0 9 11 9 23 0 13 9 49 19 80 11 31 20 65 20 74 3 103
14 175 32 218 13 30 21 67 20 93 -1 23 -3 54 -3 70 -1 15 2 34 6 43 5 12 -1
25 -20 42 -23 21 -31 24 -48 15 -12 -6 -23 -14 -26 -17 -3 -3 -22 -17 -42 -31
-42 -28 -130 -156 -198 -287 -53 -103 -56 -156 -15 -261 25 -65 92 -152 116
-152 11 0 49 -74 49 -94 0 -7 12 -17 27 -21 l27 -6 -49 -45 c-194 -173 -472
-277 -800 -299 -224 -16 -440 11 -497 63 -10 8 -18 21 -18 29 0 11 14 13 73 8
39 -3 151 -8 247 -10 152 -3 207 0 316 19 45 8 268 78 341 107 94 37 229 107
278 145 31 23 34 29 22 41 -12 12 -24 8 -83 -30 -38 -24 -97 -59 -131 -76
-103 -51 -320 -118 -448 -137 -16 -2 -42 -6 -58 -8 -15 -3 -62 -8 -105 -11
-42 -4 -88 -8 -102 -9 -51 -5 -261 24 -345 47 -30 9 -93 29 -110 37 -131 54
-178 77 -182 87 -7 17 14 51 42 69 40 26 97 22 144 -10 23 -16 41 -31 41 -35
1 -3 16 -24 34 -45 l34 -40 22 47 c26 55 28 57 79 63 57 7 107 -17 128 -60 9
-20 22 -36 29 -36 7 0 26 17 43 38 52 66 159 84 197 34 15 -20 30 -9 53 41 30
66 100 127 139 121 6 -1 18 -2 26 -3 8 0 24 -18 36 -38 l22 -38 19 36 c24 47
120 135 156 142 22 5 33 0 51 -19 12 -14 22 -36 22 -49 0 -44 31 -40 45 5 4
14 16 37 27 52 12 17 17 36 13 48 -8 27 -19 25 -39 -5 l-17 -25 -21 20 c-45
42 -123 18 -203 -64 -48 -50 -55 -53 -71 -41 -24 18 -86 19 -127 1 -35 -15
-92 -71 -111 -108 -8 -16 -19 -22 -36 -21 -114 12 -177 -4 -201 -48 -11 -21
-11 -21 -39 9 -32 35 -84 52 -138 46 -43 -5 -92 -23 -92 -34 0 -20 -32 -17
-59 5 -43 36 -110 65 -155 65 -48 0 -101 -33 -117 -73 l-12 -28 -44 43 c-25
24 -58 60 -75 81 -30 38 -30 38 -11 60 22 26 23 74 0 162 -24 94 -26 121 -12
169 20 67 34 88 53 82 9 -3 37 -8 62 -11 25 -3 59 -9 75 -12 43 -7 238 -6 264
2 14 4 21 2 22 -7 0 -7 2 -33 4 -58 12 -200 166 -379 327 -381 66 -1 159 39
186 79 19 28 21 98 8 192 -23 158 -11 234 41 246 80 17 177 53 271 100 l105
51 42 -29 c80 -56 205 -28 250 56 14 26 27 36 54 41 72 14 90 31 115 108 3 9
15 17 26 17 25 0 92 33 109 54 7 9 17 14 21 11 4 -3 6 -82 5 -177z m140 -443
c0 -30 0 -30 -68 -35 -84 -6 -105 -25 -81 -72 19 -36 49 -34 49 2 0 26 28 35
52 17 19 -14 5 -33 -37 -52 -37 -17 -40 -17 -71 1 -43 25 -45 52 -8 97 38 46
94 77 134 74 26 -2 30 -6 30 -32z"/>
<path d="M2562 4097 c-16 -19 -5 -27 40 -27 35 0 38 -2 38 -29 0 -53 49 -96
125 -108 17 -3 32 -5 35 -6 3 -1 29 2 58 6 37 6 62 16 88 39 l35 31 27 -20
c15 -10 42 -30 60 -43 23 -17 35 -21 43 -13 22 22 -74 94 -172 128 -42 15 -58
6 -34 -18 13 -14 13 -17 0 -30 -8 -9 -37 -20 -65 -26 -117 -25 -190 24 -134
89 11 14 9 17 -14 26 -44 16 -117 17 -130 1z"/>
<path d="M3140 3795 c-19 -23 -16 -82 6 -112 39 -52 86 -65 131 -35 17 11 22
51 11 84 -22 62 -116 102 -148 63z m94 -60 c15 -22 22 -55 12 -55 -2 0 -11 -3
-20 -6 -20 -8 -60 68 -44 84 14 14 33 5 52 -23z"/>
<path d="M1858 3413 c-38 -43 -39 -123 -2 -164 22 -24 46 -24 69 1 15 16 17
31 12 81 -7 85 -43 122 -79 82z"/>
<path d="M1271 3349 c-21 -23 -25 -35 -23 -77 1 -29 42 -81 64 -81 25 -1 48
38 48 84 0 81 -47 119 -89 74z"/>
<path d="M2305 3290 c-12 -19 81 -64 158 -75 26 -4 49 -11 52 -15 2 -4 -13
-31 -35 -60 -22 -30 -40 -62 -40 -71 0 -10 14 -31 32 -48 38 -35 36 -39 -57
-106 -73 -52 -83 -70 -55 -100 29 -31 25 -52 -12 -65 -52 -17 -73 -37 -59 -53
12 -16 55 -14 109 4 48 16 56 41 37 112 -6 24 0 34 63 96 79 77 84 97 36 139
l-26 23 24 32 c38 50 60 106 54 132 -5 19 -15 25 -44 30 -20 3 -73 12 -117 20
-94 18 -112 18 -120 5z"/>
<path d="M2148 3215 c-1 -1 -19 -5 -39 -8 -46 -6 -79 -24 -79 -43 0 -12 10
-14 53 -9 129 13 178 28 160 46 -10 10 -87 21 -95 14z"/>
<path d="M1525 3118 c-60 -13 -63 -23 -20 -63 22 -19 42 -35 45 -35 16 0 80
72 80 90 0 23 -25 24 -105 8z"/>
<path d="M1123 3088 c-42 -20 -26 -33 36 -30 29 2 35 7 28 27 -7 17 -32 19
-64 3z"/>
<path d="M2018 3094 c-10 -3 -18 -9 -18 -14 0 -12 43 -21 168 -35 29 -3 58 -6
64 -8 22 -4 19 31 -3 44 -24 12 -181 22 -211 13z"/>
<path d="M1191 3023 c-41 -8 -101 -51 -101 -73 0 -27 9 -26 85 16 76 42 84 69
16 57z"/>
<path d="M1782 2971 c-21 -70 -60 -80 -140 -38 -65 34 -72 34 -107 -3 -16 -16
-32 -30 -36 -30 -4 0 -21 11 -37 25 -37 31 -62 32 -62 4 0 -28 53 -79 82 -79
13 0 41 11 62 24 l39 23 43 -19 c72 -31 150 -22 173 21 13 23 20 80 14 99 -9
22 -20 13 -31 -27z"/>
<path d="M2006 2971 c-8 -12 97 -81 123 -81 35 0 24 19 -34 55 -55 35 -79 42
-89 26z"/>
<path d="M1181 2891 c-20 -19 -29 -35 -25 -45 10 -26 30 -19 55 19 13 19 28
35 32 35 5 0 5 5 2 10 -11 17 -32 11 -64 -19z"/>
<path d="M3717 3380 c-23 -19 -24 -24 -20 -112 4 -90 3 -93 -27 -135 -27 -37
-30 -49 -25 -85 13 -100 15 -129 15 -240 1 -64 0 -120 -1 -125 -4 -20 3 -23
29 -9 78 41 161 176 188 306 12 60 11 183 -2 233 -23 88 -71 162 -116 179 -10
4 -27 -1 -41 -12z"/>
<path d="M2944 2378 c-23 -11 -41 -43 -39 -68 1 -8 3 -23 3 -33 3 -28 60 -19
84 13 49 67 19 121 -48 88z"/>
<path d="M2866 1938 c-19 -27 -20 -42 -3 -56 19 -17 53 -4 66 25 22 48 -33 75
-63 31z"/>
<path d="M2468 4595 c-2 -2 -35 -7 -73 -10 -149 -12 -168 -21 -181 -79 -12
-58 -45 -123 -70 -136 -21 -12 -27 -11 -50 11 -14 13 -42 48 -61 77 -19 28
-41 52 -49 52 -28 0 -177 -65 -216 -94 -9 -7 -22 -32 -27 -57 -13 -56 -36 -75
-67 -54 -42 27 -67 19 -122 -40 -51 -54 -52 -55 -47 -107 18 -179 16 -187 -36
-165 -19 8 -47 29 -63 46 -17 17 -35 31 -42 31 -20 0 -105 -106 -99 -123 4 -8
24 -29 45 -46 l39 -31 83 24 c46 13 125 31 176 41 l93 18 132 131 c99 98 151
142 209 175 94 52 111 51 182 -20 30 -29 56 -47 65 -45 121 36 212 49 331 49
162 0 272 -28 448 -114 68 -34 125 -59 128 -57 2 3 -6 24 -19 49 -36 72 -116
113 -262 134 -22 3 -51 7 -65 10 -14 2 -47 7 -75 10 -134 16 -233 62 -268 125
-19 34 -24 95 -14 157 4 21 1 33 -8 37 -7 2 -15 3 -17 1z"/>
<path d="M3685 4049 c-4 -6 -9 -40 -11 -76 -2 -36 -9 -81 -15 -101 -7 -21 -13
-46 -15 -58 -2 -19 1 -20 37 -14 22 4 73 6 114 5 l74 -2 -16 31 c-20 39 -140
213 -152 221 -5 3 -13 0 -16 -6z"/>
<path d="M866 3218 c4 -7 15 -22 24 -33 9 -11 20 -27 23 -36 6 -19 -26 -53
-61 -64 -34 -10 -40 -25 -58 -161 -6 -47 -4 -53 22 -78 32 -29 33 -29 52 -17
12 7 11 14 -2 39 -9 17 -20 34 -26 37 -21 13 -8 52 30 92 52 53 100 147 100
196 l0 37 -56 0 c-41 0 -53 -3 -48 -12z"/>
<path d="M920 2690 c-14 -10 -44 -24 -67 -31 -39 -10 -43 -15 -43 -43 1 -117
84 -340 181 -486 85 -128 220 -284 304 -350 37 -30 40 -30 53 -13 10 14 26 18
71 18 111 -1 275 -109 396 -262 51 -65 70 -77 138 -93 110 -24 322 -37 437
-26 17 1 40 3 52 4 48 4 3 15 -74 19 -176 7 -266 25 -390 77 -50 22 -105 71
-128 117 -11 21 -30 41 -42 44 -38 12 -179 85 -226 117 -43 30 -100 78 -154
131 -16 16 -59 44 -97 63 -127 66 -228 187 -274 332 -32 100 -38 125 -43 196
-3 50 -9 65 -33 90 -22 22 -31 43 -33 73 l-3 42 -25 -19z"/>
<path d="M3928 2482 c-46 -42 -98 -89 -115 -103 -29 -24 -32 -32 -32 -84 l0
-58 42 39 c23 22 44 42 47 45 3 3 27 23 54 43 28 21 56 49 63 63 21 41 42 122
33 128 -4 3 -46 -30 -92 -73z"/>
<path d="M3872 2273 c-11 -16 -22 -37 -26 -49 -3 -11 -30 -42 -59 -69 -28 -26
-110 -102 -180 -168 -139 -130 -143 -134 -232 -196 -170 -120 -528 -341 -550
-341 -5 0 -19 7 -29 15 -25 19 -46 19 -46 0 0 -18 -27 -32 -59 -29 -21 1 -23
-1 -17 -36 6 -35 4 -37 -21 -37 -15 0 -34 -10 -44 -22 -9 -11 -29 -25 -43 -31
-15 -5 -30 -20 -35 -34 -6 -14 -21 -26 -38 -31 -33 -8 -63 -32 -63 -51 0 -7
-19 -26 -43 -42 -57 -40 -127 -117 -127 -140 0 -10 9 -27 21 -38 19 -17 38
-19 228 -19 168 1 215 4 255 18 30 10 54 13 64 8 8 -5 30 -4 50 1 29 8 36 7
48 -11 16 -22 36 -19 67 7 10 9 34 17 55 18 28 2 45 12 68 39 24 27 43 37 84
45 30 6 61 16 69 23 9 8 37 26 63 40 52 30 213 154 308 237 35 30 72 63 84 73
115 99 206 211 303 372 58 97 183 340 183 358 0 4 -13 13 -30 18 -16 6 -30 17
-30 24 0 21 -17 27 -40 13 -18 -11 -23 -10 -31 5 -9 15 -18 17 -49 12 -32 -5
-38 -4 -43 15 -5 19 -8 20 -28 10 -18 -10 -24 -9 -31 4 -13 24 -34 20 -56 -11z
m131 -66 c29 1 37 -3 37 -17 0 -22 19 -30 42 -19 10 6 19 5 23 -1 3 -5 15 -10
26 -10 16 0 19 -4 14 -22 -4 -13 -15 -31 -25 -41 -16 -18 -19 -18 -48 -3 -40
21 -48 6 -17 -28 14 -15 25 -31 25 -35 0 -14 -82 -132 -87 -127 -3 3 -2 27 3
53 16 92 7 111 -35 72 -12 -11 -24 -19 -26 -18 -17 18 -75 114 -75 125 0 11
10 10 50 -6 59 -23 70 -24 70 -7 0 12 -62 57 -80 57 -11 0 -14 23 -3 34 4 4
21 3 38 -1 16 -4 47 -7 68 -6z m-115 -178 c12 -25 22 -49 22 -54 0 -12 -50
-75 -59 -75 -14 0 -73 139 -67 158 4 10 16 28 27 41 l21 22 17 -23 c10 -13 27
-44 39 -69z m-125 9 c56 -131 65 -189 38 -222 -14 -16 -42 -22 -39 -8 0 4 -2
16 -6 27 -20 53 -31 93 -42 154 -7 40 35 82 49 49z m-53 -160 c27 -113 22
-148 -26 -184 -36 -28 -50 -25 -57 11 -2 11 -7 27 -10 35 -25 62 -36 124 -26
143 12 22 80 87 91 87 3 0 16 -41 28 -92z m260 -12 c0 -15 -74 -128 -77 -119
-5 13 8 41 41 90 18 29 36 42 36 29z m-386 -96 c25 -122 14 -165 -55 -216
l-34 -25 -23 93 c-37 156 -39 140 25 192 32 25 61 42 65 38 3 -4 13 -41 22
-82z m-153 -132 c27 -138 25 -148 -20 -180 -22 -16 -44 -28 -49 -28 -9 0 -30
47 -33 72 0 4 -11 40 -23 80 l-22 73 60 42 c33 24 62 41 64 38 3 -3 13 -46 23
-97z m429 69 c0 -17 -60 -101 -67 -94 -9 9 7 46 34 77 28 33 33 36 33 17z
m-591 -99 c5 -13 19 -65 32 -115 l24 -93 -50 -44 c-28 -25 -53 -45 -57 -46
-10 0 -88 216 -88 243 1 13 97 76 118 77 7 0 16 -10 21 -22z m455 -66 c-76
-69 -74 -68 -74 -43 0 12 19 42 42 67 41 44 43 45 52 24 8 -18 5 -26 -20 -48z
m-611 -24 c3 -13 19 -75 36 -139 17 -63 33 -133 35 -155 5 -37 4 -37 -6 -11
-14 33 -19 33 -67 2 -22 -15 -45 -23 -54 -19 -15 5 -15 8 -1 37 16 30 16 32
-7 50 -27 22 -71 150 -60 178 7 20 87 79 107 79 7 0 14 -10 17 -22z m500 -58
c-6 -23 -97 -103 -107 -93 -12 12 -6 24 35 68 44 48 81 61 72 25z m-642 -85
c10 -43 19 -84 19 -91 0 -26 -28 -14 -39 16 -12 35 -27 37 -89 13 -43 -16 -45
-16 -58 2 -8 10 -14 27 -14 37 0 12 -11 23 -32 30 l-31 11 34 12 c20 7 41 8
51 3 12 -6 35 1 75 21 32 16 59 28 61 26 2 -2 12 -38 23 -80z m485 -48 c-3
-12 -20 -32 -38 -45 l-33 -22 -3 22 c-3 16 7 33 34 57 39 35 52 32 40 -12z
m-698 5 c-6 -49 21 -73 69 -61 66 15 83 12 83 -15 0 -14 6 -28 12 -32 18 -11
48 -12 54 -2 9 15 24 -2 24 -27 0 -33 43 -54 90 -44 34 7 50 -1 50 -26 0 -5
-18 -29 -40 -52 -28 -29 -46 -40 -59 -36 -11 3 -30 -2 -42 -11 -21 -14 -24
-14 -41 1 -16 14 -24 15 -52 5 -27 -10 -40 -10 -66 2 -29 12 -39 11 -84 -4
-55 -19 -117 -27 -289 -36 -114 -7 -157 -1 -157 19 1 18 51 70 114 116 35 26
56 49 56 61 0 11 6 20 13 20 6 0 28 5 48 10 27 8 35 15 35 32 -1 18 7 24 42
31 37 7 43 12 39 28 -5 19 -1 21 58 32 23 4 45 -2 43 -11z m592 -81 c0 -17
-96 -101 -114 -101 -4 0 -6 17 -4 38 3 33 8 40 53 64 52 28 65 28 65 -1z"/>
<path d="M2707 1278 c-2 -7 0 -26 5 -43 6 -16 9 -46 9 -65 -1 -19 3 -41 8 -49
13 -21 51 4 58 39 3 16 12 35 19 41 23 19 16 38 -21 53 -19 8 -35 20 -35 25 0
15 -37 14 -43 -1z"/>
<path d="M2835 1170 c-7 -12 2 -30 16 -30 5 0 9 9 9 20 0 21 -15 27 -25 10z"/>
<path d="M2916 1161 c-3 -5 1 -14 8 -21 12 -9 17 -7 26 9 9 18 8 21 -9 21 -11
0 -22 -4 -25 -9z"/>
<path d="M3026 1112 c-2 -4 0 -14 5 -22 8 -13 10 -13 18 0 10 15 6 30 -9 30
-5 0 -11 -4 -14 -8z"/>
<path d="M2785 1100 c-3 -5 -4 -14 0 -20 8 -13 35 -1 35 16 0 16 -26 19 -35 4z"/>
<path d="M2873 1094 c-8 -20 8 -36 26 -25 15 10 8 41 -9 41 -6 0 -13 -7 -17
-16z"/>
<path d="M2956 1101 c-3 -5 0 -14 8 -20 10 -9 15 -8 19 3 9 22 -15 37 -27 17z"/>
<path d="M2595 1090 c-11 -5 -45 -12 -75 -15 -71 -8 -89 -18 -74 -42 12 -19
30 -20 99 -8 70 12 95 25 95 51 0 25 -11 29 -45 14z"/>
<path d="M2695 1071 c-3 -5 -1 -12 4 -15 12 -8 41 3 41 15 0 12 -37 12 -45 0z"/>
<path d="M497 2083 c-13 -12 -7 -51 11 -73 l19 -23 21 21 c21 21 22 21 31 3 9
-16 6 -20 -17 -25 -40 -9 -62 -30 -77 -73 -11 -32 -11 -42 1 -66 18 -34 57
-50 100 -42 63 11 83 69 50 137 -14 28 -14 33 -1 48 19 21 19 54 -1 74 -20 21
-30 20 -53 -3 -19 -19 -19 -19 -25 5 -5 17 -13 24 -30 24 -12 0 -26 -3 -29 -7z"/>
<path d="M420 2035 c-13 -15 -5 -55 14 -67 7 -5 5 -8 -6 -8 -24 0 -39 -31 -27
-53 12 -21 57 -23 65 -3 3 8 1 23 -5 34 -9 16 -7 21 9 25 38 10 16 87 -24 87
-8 0 -19 -7 -26 -15z"/>
<path d="M735 1751 c-8 -27 3 -66 26 -87 17 -16 20 -16 45 0 17 12 24 23 20
34 -3 10 1 8 10 -5 20 -28 45 -29 68 -4 32 35 -3 89 -49 77 -17 -4 -25 -13
-25 -28 0 -20 -1 -20 -25 6 -28 31 -61 34 -70 7z"/>
<path d="M670 1660 c-12 -22 -8 -33 23 -67 24 -27 49 -29 71 -7 18 18 8 46
-28 76 -28 23 -53 22 -66 -2z"/>
<path d="M842 1643 c-71 -35 -76 -135 -8 -167 43 -20 51 -20 87 1 46 27 52
104 12 149 -25 29 -56 34 -91 17z"/>
<path d="M706 1548 c-23 -13 -20 -54 6 -72 29 -20 34 -20 58 4 16 16 18 24 9
44 -12 26 -48 38 -73 24z"/>
<path d="M5056 1532 c-2 -4 0 -27 4 -52 17 -86 12 -94 -44 -65 -36 19 -56 13
-56 -15 0 -26 -25 -36 -45 -20 -21 18 -27 8 -29 -45 -2 -55 -19 -70 -54 -47
-25 17 -25 17 -19 -13 3 -17 9 -38 12 -47 5 -13 0 -21 -20 -30 -23 -10 -28
-10 -36 5 -14 24 -34 21 -64 -10 -51 -54 -52 -98 -4 -124 33 -17 67 -3 83 36
8 19 20 35 25 35 6 0 18 14 26 30 l16 31 31 -26 c37 -31 58 -21 40 20 -15 32
-15 36 3 59 15 19 15 19 36 -3 20 -21 22 -22 40 -5 13 12 19 28 17 51 -3 44
-15 51 -28 17 -10 -24 -13 -26 -25 -13 -12 12 -13 20 -3 47 11 28 16 32 38 27
52 -13 66 -71 28 -121 -36 -48 -110 -114 -175 -157 -87 -57 -85 -71 4 -41 143
48 255 207 256 364 0 78 -35 148 -57 112z m-311 -397 c0 -10 -5 -20 -11 -22
-13 -4 -27 24 -18 38 9 15 29 4 29 -16z"/>
<path d="M1350 1361 c-17 -33 16 -91 51 -91 21 0 43 35 33 53 -14 25 -48 57
-60 57 -7 0 -18 -9 -24 -19z"/>
<path d="M1477 1364 c-10 -11 -8 -52 3 -59 16 -10 11 -25 -8 -25 -10 0 -28 -9
-40 -20 -58 -55 -31 -167 48 -200 27 -11 37 -11 66 4 83 39 79 163 -7 215 -22
14 -26 20 -15 24 22 9 5 61 -20 65 -11 2 -23 0 -27 -4z"/>
<path d="M1870 1357 c-29 -15 -34 -28 -18 -49 18 -24 59 -31 82 -15 41 30 -17
88 -64 64z"/>
<path d="M1725 1311 c-25 -41 50 -104 102 -85 22 8 27 15 25 34 -2 14 -10 31
-17 39 -17 18 -100 27 -110 12z"/>
<path d="M4600 1303 c-8 -3 -31 -20 -51 -38 -20 -18 -42 -35 -50 -37 -10 -4 3
-29 46 -93 37 -53 66 -109 75 -143 17 -62 36 -77 46 -36 5 19 -1 51 -16 95
l-22 67 26 38 c33 49 34 93 1 128 -25 27 -29 28 -55 19z m40 -68 c0 -23 -22
-75 -32 -75 -13 0 -47 41 -48 57 0 18 39 41 61 36 10 -3 19 -11 19 -18z"/>
<path d="M1281 1268 c-11 -30 26 -71 60 -66 33 4 37 40 8 67 -29 27 -58 27
-68 -1z"/>
<path d="M1912 1254 c-33 -17 -62 -59 -62 -89 0 -34 34 -88 72 -112 48 -32 98
-32 144 -1 67 46 70 123 8 177 -19 17 -40 31 -47 31 -7 1 -28 3 -47 5 -21 3
-48 -1 -68 -11z"/>
<path d="M1707 1222 c-26 -6 -18 -51 13 -73 40 -28 65 -31 90 -11 20 16 21 21
11 41 -17 30 -75 52 -114 43z"/>
<path d="M1300 1165 c-10 -12 -7 -19 16 -40 31 -29 51 -29 68 -2 9 15 7 22
-13 38 -28 23 -54 24 -71 4z"/>
<path d="M1763 1098 c-14 -24 -13 -45 5 -61 34 -30 82 -20 82 18 0 38 -68 72
-87 43z"/>
<path d="M4270 1044 c-30 -21 -158 -131 -182 -158 -39 -42 -6 -63 42 -26 14
11 28 20 33 20 4 0 22 -30 39 -67 40 -87 57 -107 75 -92 7 6 13 19 13 28 0 19
-49 100 -80 133 -19 21 -19 23 -2 42 9 12 22 24 28 28 19 12 66 86 62 98 -2 6
-12 4 -28 -6z"/>
<path d="M4443 1018 c-46 -22 -53 -97 -13 -133 26 -24 68 -12 76 20 3 13 16
27 27 31 29 9 37 22 37 62 l0 33 -24 -28 -24 -28 -26 28 c-14 15 -26 27 -28
26 -2 0 -13 -5 -25 -11z m25 -79 c3 -19 1 -22 -9 -12 -17 17 -21 45 -6 40 7
-2 14 -14 15 -28z"/>
<path d="M4302 928 c-35 -38 -36 -76 -1 -110 18 -19 35 -28 45 -24 9 3 21 6
29 6 7 0 20 15 28 33 22 44 5 58 -30 26 l-27 -24 22 32 c43 62 -14 115 -66 61z
m38 -28 c0 -5 -5 -10 -11 -10 -5 0 -7 5 -4 10 3 6 8 10 11 10 2 0 4 -4 4 -10z"/>
<path d="M4077 793 c-3 -5 3 -28 14 -52 10 -24 19 -45 19 -48 0 -3 -15 5 -34
16 -52 32 -55 2 -5 -44 43 -39 44 -54 10 -105 l-16 -25 -3 30 c-2 16 1 31 7
33 15 5 14 27 -3 41 -11 9 -17 8 -30 -4 -12 -13 -20 -14 -37 -5 -27 15 -48 -2
-31 -23 9 -11 7 -16 -13 -25 -14 -6 -31 -9 -39 -6 -23 9 -29 -15 -11 -43 14
-21 15 -27 4 -34 -9 -6 -20 -2 -31 11 -27 33 -38 24 -38 -34 0 -62 -9 -74 -34
-44 -28 33 -44 7 -23 -37 21 -44 57 -48 84 -9 35 49 79 89 96 86 16 -3 21 9
18 48 0 8 3 22 9 30 8 12 13 11 33 -8 l24 -23 -45 -44 c-25 -25 -43 -48 -40
-51 11 -11 77 25 115 63 21 21 47 57 58 78 25 53 28 133 7 176 -18 35 -57 66
-65 52z"/>
<path d="M3710 598 c-58 -29 -140 -108 -140 -135 0 -27 20 -35 41 -17 14 12
18 11 33 -5 14 -16 15 -23 6 -40 -13 -26 -6 -41 20 -41 17 0 19 -7 16 -54 -4
-69 4 -83 30 -55 15 17 19 36 19 96 0 70 2 76 28 95 30 22 37 58 10 58 -9 0
-27 -10 -41 -22 -23 -22 -24 -22 -37 -4 -17 22 -5 51 23 60 29 10 65 53 59 70
-8 21 -14 20 -67 -6z"/>
</g>
</svg>
